<?xml version="1.0" standalone="no"?>
<!DOCTYPE svg PUBLIC "-//W3C//DTD SVG 20010904//EN"
 "http://www.w3.org/TR/2001/REC-SVG-20010904/DTD/svg10.dtd">
<svg version="1.0" xmlns="http://www.w3.org/2000/svg"
 width="450.000000pt" height="450.000000pt" viewBox="0 0 450.000000 450.000000"
 preserveAspectRatio="xMidYMid meet">
<metadata>
Created by potrace 1.11, written by Peter Selinger 2001-2013
</metadata>
<g transform="translate(0.000000,450.000000) scale(0.100000,-0.100000)"
fill="#000000" stroke="none">
<path d="M2007 4475 c-263 -33 -476 -95 -692 -199 -122 -60 -341 -198 -415
-262 -197 -170 -226 -200 -366 -374 -257 -321 -425 -730 -474 -1155 -75 -643
150 -1301 612 -1787 337 -354 836 -598 1348 -657 82 -9 429 -7 519 3 81 9 304
57 382 82 80 25 320 131 399 176 25 14 68 38 95 54 122 69 263 182 410 329
322 324 551 781 614 1225 6 41 13 95 17 120 16 112 10 365 -11 505 -3 22 -8
60 -10 83 -17 152 -104 438 -178 589 -86 175 -186 338 -253 413 -8 8 -38 44
-68 80 -63 75 -233 242 -291 285 -21 16 -47 37 -57 47 -10 10 -22 18 -26 18
-5 0 -22 12 -38 26 -77 68 -295 191 -424 239 -41 16 -84 34 -95 40 -11 7 -42
18 -70 25 -27 7 -86 23 -130 36 -213 63 -565 89 -798 59z"/>
</g>
</svg>
